<svg xmlns="http://www.w3.org/2000/svg" x="0px" y="0px"
width="100" height="100"
viewBox="0 0 50 50">
<path fill="#f4f4f4" d="M 0 8 L 0 10.5 C 6.7 16.3 19.700781 27.400781 20.800781 28.300781 C 22.200781 29.500781 23.6 29.599609 24 29.599609 C 24.4 29.599609 25.799609 29.500781 27.099609 28.300781 C 28.199609 27.400781 41.3 16.2 48 10.5 L 48 8 L 0 8 z M 0 13.199219 L 0 36.800781 L 14.5 25.5 C 10.2 21.9 4.2 16.799219 0 13.199219 z M 48 13.199219 C 43.8 16.799219 37.8 21.999609 33.5 25.599609 L 48 37.099609 L 48 13.199219 z M 16 26.900391 L 0 39.300781 L 0 42 L 48 42 L 48 39.699219 L 32 26.900391 C 30.1 28.500391 28.800391 29.600391 28.400391 29.900391 C 26.600391 31.400391 24.7 31.599609 24 31.599609 C 23.3 31.599609 21.4 31.400391 19.5 29.900391 C 19.2 29.600391 17.8 28.500391 16 26.900391 z"></path>
</svg>